<svg width="37" height="24" viewBox="0 0 37 52" fill="none" xmlns="http://www.w3.org/2000/svg">
<g id="logo">
<path id="glass" d="M18.8467 33.2861V32.9755L18.6271 32.7558L2.20166 16.3304C2.18357 16.3123 2.17119 16.2954 2.16327 16.2817C2.1621 16.2797 2.16105 16.2778 2.1601 16.276C2.17176 16.2605 2.1849 16.2487 2.19796 16.2404C2.2165 16.2286 2.23854 16.2212 2.26674 16.2212H35.5642C35.5923 16.2212 35.6143 16.2286 35.6328 16.2404C35.64 16.245 35.6473 16.2506 35.6543 16.2574C35.6594 16.2984 35.6581 16.3305 35.6547 16.3514C35.6545 16.3529 35.6543 16.3542 35.654 16.3555L19.2535 32.756L19.0338 32.9757V33.2864V47.7268V48.2855L19.5692 48.4454L27.2112 50.7281L27.2276 50.733L27.2441 50.7371C27.2869 50.7478 27.3229 50.7719 27.346 50.7997C27.3682 50.8263 27.3706 50.8456 27.3706 50.853C27.3706 50.853 27.3706 50.8533 27.3706 50.8538C27.3705 50.8545 27.3704 50.8556 27.37 50.8571C27.3694 50.8599 27.3682 50.8642 27.3656 50.87C27.3603 50.8821 27.3506 50.8973 27.336 50.9118C27.3214 50.9264 27.3063 50.9361 27.2942 50.9415C27.2884 50.944 27.284 50.9453 27.2813 50.9459C27.2786 50.9465 27.2772 50.9465 27.2771 50.9465H10.6036C10.549 50.9465 10.5221 50.9293 10.5131 50.9218C10.5073 50.9169 10.5054 50.9138 10.5047 50.9115C10.4996 50.8528 10.5147 50.8158 10.5249 50.7995C10.5302 50.7911 10.5342 50.7879 10.535 50.7873L10.5351 50.7873C10.5354 50.787 10.5356 50.7869 10.5372 50.7865L10.5546 50.7821L10.5718 50.7769L18.3131 48.4447L18.8467 48.2839V47.7266V33.2861ZM35.6506 16.3692C35.6506 16.3692 35.6508 16.3688 35.6511 16.3679L35.6506 16.3692ZM18.4099 32.3277L18.9382 32.856L19.4685 32.3297L25.9197 25.9283L27.5027 24.3574L25.2922 24.6525C24.5483 24.7518 23.7981 24.8444 23.0094 24.8444C21.5667 24.8444 19.9881 24.5652 18.4593 23.8708C15.4576 22.4783 12.5744 22.9089 11.0263 23.3894L9.83983 23.7576L10.7182 24.636L18.4099 32.3277ZM16.0438 49.2912L16.2605 50.7592H21.5208L21.7375 49.2912L19.1074 48.4973L18.8906 48.4318L18.6739 48.4973L16.0438 49.2912ZM27.9373 23.7162L28.0894 23.6592L28.2043 23.5443L34.1095 17.6391L35.3898 16.3588H33.5791H4.30122H2.49056L3.77089 17.6391L9.37836 23.2466L9.71397 23.5822L10.1609 23.4226C11.4968 22.9455 14.878 21.9366 18.5228 23.6436L18.5272 23.6456C20.5771 24.5896 22.7348 24.6737 24.4503 24.4982C26.169 24.3224 27.4988 23.8806 27.9373 23.7162Z" fill="white" stroke="white" stroke-width="1.5"/>
<path id="note" fill-rule="evenodd" clip-rule="evenodd" d="M23.8372 18.6035C24.752 18.2757 25.6598 18.2151 26.3711 18.3828L24.9407 2.18783C24.9126 1.7946 25.2085 1.44814 25.6021 1.42006C25.9953 1.39164 26.3417 1.68782 26.3698 2.08106L26.5133 3.96901C30.2097 9.41886 37.4119 6.5689 32.8331 14.4037C33.6575 6.9979 28.7329 8.3656 26.8439 8.32877L27.8279 18.6362C27.9563 20.3777 26.9366 21.7908 25.2045 22.4131C23.462 23.0376 21.7428 22.6926 21.3651 21.6406C20.987 20.5896 22.0949 19.2305 23.8372 18.6035Z" fill="white"/>
</g>
</svg>
