<svg width="22" height="22" viewBox="0 0 22 22" fill="none" xmlns="http://www.w3.org/2000/svg">
<path id="Subtract" d="M10.6871 0.332764C7.79057 0.332764 7.42706 0.345429 6.28941 0.397201C5.15398 0.449195 4.37896 0.628953 3.70081 0.892701C2.99934 1.16511 2.40429 1.52952 1.81147 2.12256C1.2182 2.71538 0.8538 3.31043 0.580497 4.01168C0.316082 4.69005 0.136103 5.4653 0.0849974 6.60028C0.0341142 7.73793 0.0207825 8.10167 0.0207825 10.9982C0.0207825 13.8948 0.0336701 14.2572 0.0852199 15.3948C0.137436 16.5303 0.317194 17.3053 0.580719 17.9834C0.853355 18.6849 1.21776 19.28 1.8108 19.8728C2.4034 20.4661 2.99845 20.8313 3.69948 21.1038C4.37807 21.3675 5.15332 21.5473 6.28852 21.5993C7.42617 21.651 7.78946 21.6637 10.6858 21.6637C13.5826 21.6637 13.945 21.651 15.0826 21.5993C16.2181 21.5473 16.994 21.3675 17.6726 21.1038C18.3738 20.8313 18.968 20.4661 19.5606 19.8728C20.1538 19.28 20.5182 18.6849 20.7916 17.9837C21.0537 17.3053 21.2337 16.5301 21.2871 15.3951C21.3382 14.2574 21.3515 13.8948 21.3515 10.9982C21.3515 8.10167 21.3382 7.73815 21.2871 6.6005C21.2337 5.46507 21.0537 4.69005 20.7916 4.0119C20.5182 3.31043 20.1538 2.71538 19.5606 2.12256C18.9673 1.5293 18.374 1.16489 17.6719 0.892701C16.992 0.628953 16.2165 0.449195 15.0811 0.397201C13.9434 0.345429 13.5813 0.332764 10.6838 0.332764H10.6871ZM9.73036 2.25477C10.0143 2.25432 10.3312 2.25477 10.6871 2.25477C13.5348 2.25477 13.8723 2.26499 14.9969 2.3161C16.0368 2.36365 16.6011 2.5374 16.9771 2.68339C17.4748 2.8767 17.8297 3.10778 18.2027 3.48108C18.576 3.85437 18.8071 4.20988 19.0009 4.7076C19.1468 5.08312 19.3208 5.6475 19.3682 6.68738C19.4193 7.8117 19.4304 8.14944 19.4304 10.9958C19.4304 13.8421 19.4193 14.1799 19.3682 15.3042C19.3206 16.3441 19.1468 16.9085 19.0009 17.284C18.8076 17.7817 18.576 18.1361 18.2027 18.5092C17.8294 18.8825 17.475 19.1135 16.9771 19.3068C16.6016 19.4535 16.0368 19.6268 14.9969 19.6744C13.8726 19.7255 13.5348 19.7366 10.6871 19.7366C7.83923 19.7366 7.50172 19.7255 6.3774 19.6744C5.33752 19.6264 4.77314 19.4526 4.39696 19.3066C3.89923 19.1133 3.54372 18.8822 3.17043 18.5089C2.79714 18.1356 2.56605 17.781 2.3723 17.2831C2.22631 16.9076 2.05233 16.3432 2.005 15.3033C1.9539 14.179 1.94368 13.8412 1.94368 10.9931C1.94368 8.14499 1.9539 7.80903 2.005 6.68471C2.05255 5.64483 2.22631 5.08045 2.3723 4.70449C2.56561 4.20677 2.79714 3.85126 3.17043 3.47796C3.54372 3.10467 3.89923 2.87359 4.39696 2.67983C4.77291 2.53318 5.33752 2.35987 6.3774 2.3121C7.36129 2.26766 7.74258 2.25432 9.73036 2.2521V2.25477ZM16.3803 4.02568C15.6737 4.02568 15.1004 4.59828 15.1004 5.30509C15.1004 6.01168 15.6737 6.58495 16.3803 6.58495C17.0869 6.58495 17.6601 6.01168 17.6601 5.30509C17.6601 4.5985 17.0869 4.02524 16.3803 4.02524V4.02568ZM10.6871 5.52107C7.66237 5.52107 5.20998 7.97346 5.20998 10.9982C5.20998 14.023 7.66237 16.4743 10.6871 16.4743C13.7119 16.4743 16.1634 14.023 16.1634 10.9982C16.1634 7.97346 13.7117 5.52107 10.6869 5.52107H10.6871ZM10.6871 7.44307C12.6505 7.44307 14.2423 9.03467 14.2423 10.9982C14.2423 12.9616 12.6505 14.5534 10.6871 14.5534C8.72358 14.5534 7.13198 12.9616 7.13198 10.9982C7.13198 9.03467 8.72358 7.44307 10.6871 7.44307Z" fill="white"/>
</svg>
