<svg width="23" height="20" viewBox="0 0 23 20" fill="none" xmlns="http://www.w3.org/2000/svg">
<path id="Twitter" d="M0.282204 16.8843C2.66367 17.0183 4.74617 16.4616 6.77712 14.9874C4.72555 14.6368 3.30286 13.6987 2.52966 11.7605C3.1276 11.678 3.65338 11.8327 4.27194 11.5853C2.2513 10.6986 0.942007 9.36873 0.89046 7.06974C1.52964 7.12129 2.01419 7.54397 2.77708 7.48212C0.921393 5.66766 0.354369 3.68826 1.51933 1.28617C3.4575 3.513 5.72557 5.02848 8.49879 5.73983C8.65344 5.78107 8.79776 5.8223 8.9524 5.85323C9.66374 6.01818 10.5091 6.3687 10.9421 6.31716C11.6844 6.22437 10.9421 5.36869 11.1277 4.25528C11.7153 0.791322 15.5298 -0.786015 18.3546 1.24494C19.1793 1.84288 19.8288 1.83257 20.6432 1.47174C21.0659 1.28617 21.4989 1.1006 22.0041 0.884107C21.8907 1.87381 21.1278 2.42021 20.5195 3.15217C21.2103 3.30681 21.767 3.11094 22.4062 2.90475C22.1897 3.6161 21.6536 4.01816 21.169 4.40992C20.6639 4.81198 20.468 5.23467 20.4474 5.89447C20.1381 15.8843 8.78746 23.606 1.02449 17.4616C0.271902 16.8637 1.00386 17.4616 0.282204 16.8843Z" fill="white"/>
</svg>
